<mxfile host="app.diagrams.net" agent="Mozilla/5.0 (Windows NT 10.0; Win64; x64) AppleWebKit/537.36 (KHTML, like Gecko) Chrome/141.0.0.0 Safari/537.36 Edg/141.0.0.0" version="28.2.5">
  <diagram id="R2lEEEUBdFMjLlhIrx00" name="Page-1">
    <mxGraphModel dx="2876" dy="1080" grid="1" gridSize="10" guides="1" tooltips="1" connect="1" arrows="1" fold="1" page="1" pageScale="1" pageWidth="850" pageHeight="1100" math="0" shadow="0" extFonts="Permanent Marker^https://fonts.googleapis.com/css?family=Permanent+Marker">
      <root>
        <mxCell id="0" />
        <mxCell id="1" parent="0" />
        <mxCell id="DvewLmhPV5eEYxwKGvpW-1" value="University" style="rounded=1;whiteSpace=wrap;html=1;" vertex="1" parent="1">
          <mxGeometry x="365" y="140" width="120" height="60" as="geometry" />
        </mxCell>
        <mxCell id="DvewLmhPV5eEYxwKGvpW-2" value="Department" style="rounded=1;whiteSpace=wrap;html=1;" vertex="1" parent="1">
          <mxGeometry x="365" y="380" width="120" height="60" as="geometry" />
        </mxCell>
        <mxCell id="DvewLmhPV5eEYxwKGvpW-3" value="Has" style="rhombus;whiteSpace=wrap;html=1;" vertex="1" parent="1">
          <mxGeometry x="385" y="250" width="80" height="80" as="geometry" />
        </mxCell>
        <mxCell id="DvewLmhPV5eEYxwKGvpW-4" value="" style="endArrow=none;html=1;rounded=0;exitX=0.5;exitY=0;exitDx=0;exitDy=0;entryX=0.5;entryY=1;entryDx=0;entryDy=0;" edge="1" parent="1" source="DvewLmhPV5eEYxwKGvpW-3" target="DvewLmhPV5eEYxwKGvpW-1">
          <mxGeometry width="50" height="50" relative="1" as="geometry">
            <mxPoint x="380" y="250" as="sourcePoint" />
            <mxPoint x="430" y="200" as="targetPoint" />
          </mxGeometry>
        </mxCell>
        <mxCell id="DvewLmhPV5eEYxwKGvpW-5" value="" style="endArrow=none;html=1;rounded=0;exitX=0.5;exitY=0;exitDx=0;exitDy=0;entryX=0.5;entryY=1;entryDx=0;entryDy=0;" edge="1" parent="1">
          <mxGeometry width="50" height="50" relative="1" as="geometry">
            <mxPoint x="424" y="380" as="sourcePoint" />
            <mxPoint x="424" y="330" as="targetPoint" />
          </mxGeometry>
        </mxCell>
        <mxCell id="DvewLmhPV5eEYxwKGvpW-6" value="&lt;u&gt;University_id&lt;/u&gt;" style="ellipse;whiteSpace=wrap;html=1;" vertex="1" parent="1">
          <mxGeometry x="260" y="60" width="120" height="40" as="geometry" />
        </mxCell>
        <mxCell id="DvewLmhPV5eEYxwKGvpW-7" value="University_Name" style="ellipse;whiteSpace=wrap;html=1;" vertex="1" parent="1">
          <mxGeometry x="460" y="60" width="120" height="40" as="geometry" />
        </mxCell>
        <mxCell id="DvewLmhPV5eEYxwKGvpW-8" value="" style="endArrow=none;html=1;rounded=0;exitX=0.125;exitY=0;exitDx=0;exitDy=0;entryX=0.5;entryY=1;entryDx=0;entryDy=0;exitPerimeter=0;" edge="1" parent="1" source="DvewLmhPV5eEYxwKGvpW-1">
          <mxGeometry width="50" height="50" relative="1" as="geometry">
            <mxPoint x="340" y="150" as="sourcePoint" />
            <mxPoint x="340" y="100" as="targetPoint" />
          </mxGeometry>
        </mxCell>
        <mxCell id="DvewLmhPV5eEYxwKGvpW-9" value="" style="endArrow=none;html=1;rounded=0;exitX=0.808;exitY=-0.017;exitDx=0;exitDy=0;entryX=0.5;entryY=1;entryDx=0;entryDy=0;exitPerimeter=0;" edge="1" parent="1" source="DvewLmhPV5eEYxwKGvpW-1">
          <mxGeometry width="50" height="50" relative="1" as="geometry">
            <mxPoint x="500" y="150" as="sourcePoint" />
            <mxPoint x="500" y="100" as="targetPoint" />
          </mxGeometry>
        </mxCell>
        <mxCell id="DvewLmhPV5eEYxwKGvpW-11" value="Has" style="rhombus;whiteSpace=wrap;html=1;" vertex="1" parent="1">
          <mxGeometry x="610" y="490" width="80" height="80" as="geometry" />
        </mxCell>
        <mxCell id="DvewLmhPV5eEYxwKGvpW-12" value="Offers" style="rhombus;whiteSpace=wrap;html=1;" vertex="1" parent="1">
          <mxGeometry x="110" y="490" width="80" height="80" as="geometry" />
        </mxCell>
        <mxCell id="DvewLmhPV5eEYxwKGvpW-13" value="Headed by" style="rhombus;whiteSpace=wrap;html=1;" vertex="1" parent="1">
          <mxGeometry x="385" y="490" width="80" height="80" as="geometry" />
        </mxCell>
        <mxCell id="DvewLmhPV5eEYxwKGvpW-14" value="Course" style="rounded=1;whiteSpace=wrap;html=1;" vertex="1" parent="1">
          <mxGeometry x="90" y="640" width="120" height="60" as="geometry" />
        </mxCell>
        <mxCell id="DvewLmhPV5eEYxwKGvpW-15" value="Teacher" style="rounded=1;whiteSpace=wrap;html=1;" vertex="1" parent="1">
          <mxGeometry x="465" y="640" width="120" height="60" as="geometry" />
        </mxCell>
        <mxCell id="DvewLmhPV5eEYxwKGvpW-16" value="is taught&amp;nbsp;&lt;div&gt;by&lt;/div&gt;" style="rhombus;whiteSpace=wrap;html=1;" vertex="1" parent="1">
          <mxGeometry x="285" y="630" width="80" height="80" as="geometry" />
        </mxCell>
        <mxCell id="DvewLmhPV5eEYxwKGvpW-17" value="" style="endArrow=none;html=1;rounded=0;exitX=0.5;exitY=0;exitDx=0;exitDy=0;entryX=0.5;entryY=1;entryDx=0;entryDy=0;" edge="1" parent="1">
          <mxGeometry width="50" height="50" relative="1" as="geometry">
            <mxPoint x="424" y="490" as="sourcePoint" />
            <mxPoint x="424" y="440" as="targetPoint" />
          </mxGeometry>
        </mxCell>
        <mxCell id="DvewLmhPV5eEYxwKGvpW-18" value="" style="endArrow=none;html=1;rounded=0;exitX=0.5;exitY=0;exitDx=0;exitDy=0;entryX=0.5;entryY=1;entryDx=0;entryDy=0;" edge="1" parent="1" source="DvewLmhPV5eEYxwKGvpW-12">
          <mxGeometry width="50" height="50" relative="1" as="geometry">
            <mxPoint x="370" y="490" as="sourcePoint" />
            <mxPoint x="370" y="440" as="targetPoint" />
          </mxGeometry>
        </mxCell>
        <mxCell id="DvewLmhPV5eEYxwKGvpW-19" value="" style="endArrow=none;html=1;rounded=0;entryX=0.5;entryY=1;entryDx=0;entryDy=0;exitX=0.175;exitY=0.017;exitDx=0;exitDy=0;exitPerimeter=0;" edge="1" parent="1" source="DvewLmhPV5eEYxwKGvpW-15">
          <mxGeometry width="50" height="50" relative="1" as="geometry">
            <mxPoint x="481" y="636" as="sourcePoint" />
            <mxPoint x="424" y="570" as="targetPoint" />
          </mxGeometry>
        </mxCell>
        <mxCell id="DvewLmhPV5eEYxwKGvpW-20" value="" style="endArrow=none;html=1;rounded=0;exitX=0.5;exitY=0;exitDx=0;exitDy=0;entryX=0.5;entryY=1;entryDx=0;entryDy=0;" edge="1" parent="1" source="DvewLmhPV5eEYxwKGvpW-11">
          <mxGeometry width="50" height="50" relative="1" as="geometry">
            <mxPoint x="480" y="490" as="sourcePoint" />
            <mxPoint x="480" y="440" as="targetPoint" />
          </mxGeometry>
        </mxCell>
        <mxCell id="DvewLmhPV5eEYxwKGvpW-21" value="" style="endArrow=none;html=1;rounded=0;entryX=0.5;entryY=1;entryDx=0;entryDy=0;exitX=0;exitY=0.5;exitDx=0;exitDy=0;" edge="1" parent="1" source="DvewLmhPV5eEYxwKGvpW-15">
          <mxGeometry width="50" height="50" relative="1" as="geometry">
            <mxPoint x="364" y="720" as="sourcePoint" />
            <mxPoint x="364" y="670" as="targetPoint" />
          </mxGeometry>
        </mxCell>
        <mxCell id="DvewLmhPV5eEYxwKGvpW-22" value="" style="endArrow=none;html=1;rounded=0;exitX=0.808;exitY=0.017;exitDx=0;exitDy=0;entryX=0.5;entryY=1;entryDx=0;entryDy=0;exitPerimeter=0;" edge="1" parent="1" source="DvewLmhPV5eEYxwKGvpW-15">
          <mxGeometry width="50" height="50" relative="1" as="geometry">
            <mxPoint x="649.5" y="620" as="sourcePoint" />
            <mxPoint x="649.5" y="570" as="targetPoint" />
          </mxGeometry>
        </mxCell>
        <mxCell id="DvewLmhPV5eEYxwKGvpW-23" value="" style="endArrow=none;html=1;rounded=0;exitX=0.5;exitY=0;exitDx=0;exitDy=0;entryX=0.5;entryY=1;entryDx=0;entryDy=0;" edge="1" parent="1" source="DvewLmhPV5eEYxwKGvpW-14">
          <mxGeometry width="50" height="50" relative="1" as="geometry">
            <mxPoint x="149.5" y="620" as="sourcePoint" />
            <mxPoint x="149.5" y="570" as="targetPoint" />
          </mxGeometry>
        </mxCell>
        <mxCell id="DvewLmhPV5eEYxwKGvpW-24" value="" style="endArrow=none;html=1;rounded=0;exitX=1;exitY=0.5;exitDx=0;exitDy=0;entryX=0.5;entryY=1;entryDx=0;entryDy=0;" edge="1" parent="1" source="DvewLmhPV5eEYxwKGvpW-14">
          <mxGeometry width="50" height="50" relative="1" as="geometry">
            <mxPoint x="285" y="720" as="sourcePoint" />
            <mxPoint x="285" y="670" as="targetPoint" />
          </mxGeometry>
        </mxCell>
        <mxCell id="DvewLmhPV5eEYxwKGvpW-25" value="is taught&amp;nbsp;&lt;div&gt;by&lt;/div&gt;" style="rhombus;whiteSpace=wrap;html=1;" vertex="1" parent="1">
          <mxGeometry x="110" y="760" width="80" height="80" as="geometry" />
        </mxCell>
        <mxCell id="DvewLmhPV5eEYxwKGvpW-26" value="Student" style="rounded=1;whiteSpace=wrap;html=1;" vertex="1" parent="1">
          <mxGeometry x="90" y="890" width="120" height="60" as="geometry" />
        </mxCell>
        <mxCell id="DvewLmhPV5eEYxwKGvpW-27" value="" style="endArrow=none;html=1;rounded=0;entryX=0.5;entryY=1;entryDx=0;entryDy=0;" edge="1" parent="1" source="DvewLmhPV5eEYxwKGvpW-25">
          <mxGeometry width="50" height="50" relative="1" as="geometry">
            <mxPoint x="150" y="760" as="sourcePoint" />
            <mxPoint x="149.5" y="700" as="targetPoint" />
          </mxGeometry>
        </mxCell>
        <mxCell id="DvewLmhPV5eEYxwKGvpW-28" value="" style="endArrow=none;html=1;rounded=0;exitX=0.733;exitY=0.15;exitDx=0;exitDy=0;entryX=0.5;entryY=1;entryDx=0;entryDy=0;exitPerimeter=0;" edge="1" parent="1" source="DvewLmhPV5eEYxwKGvpW-32">
          <mxGeometry width="50" height="50" relative="1" as="geometry">
            <mxPoint x="109.5" y="1020" as="sourcePoint" />
            <mxPoint x="109" y="950" as="targetPoint" />
          </mxGeometry>
        </mxCell>
        <mxCell id="DvewLmhPV5eEYxwKGvpW-29" value="" style="endArrow=none;html=1;rounded=0;exitX=0.5;exitY=0;exitDx=0;exitDy=0;entryX=0.5;entryY=1;entryDx=0;entryDy=0;" edge="1" parent="1" source="DvewLmhPV5eEYxwKGvpW-26">
          <mxGeometry width="50" height="50" relative="1" as="geometry">
            <mxPoint x="150" y="910" as="sourcePoint" />
            <mxPoint x="149.5" y="840" as="targetPoint" />
          </mxGeometry>
        </mxCell>
        <mxCell id="DvewLmhPV5eEYxwKGvpW-30" value="" style="endArrow=none;html=1;rounded=0;exitX=0.217;exitY=0.075;exitDx=0;exitDy=0;entryX=0.5;entryY=1;entryDx=0;entryDy=0;exitPerimeter=0;" edge="1" parent="1" source="DvewLmhPV5eEYxwKGvpW-31">
          <mxGeometry width="50" height="50" relative="1" as="geometry">
            <mxPoint x="180.5" y="1020" as="sourcePoint" />
            <mxPoint x="180" y="950" as="targetPoint" />
          </mxGeometry>
        </mxCell>
        <mxCell id="DvewLmhPV5eEYxwKGvpW-31" value="Student_Name" style="ellipse;whiteSpace=wrap;html=1;" vertex="1" parent="1">
          <mxGeometry x="180" y="1010" width="120" height="40" as="geometry" />
        </mxCell>
        <mxCell id="DvewLmhPV5eEYxwKGvpW-32" value="&lt;u&gt;Student_id&lt;/u&gt;" style="ellipse;whiteSpace=wrap;html=1;" vertex="1" parent="1">
          <mxGeometry x="-20" y="1010" width="120" height="40" as="geometry" />
        </mxCell>
        <mxCell id="DvewLmhPV5eEYxwKGvpW-34" value="&lt;u&gt;Course_id&lt;/u&gt;" style="ellipse;whiteSpace=wrap;html=1;" vertex="1" parent="1">
          <mxGeometry x="-50" y="560" width="120" height="40" as="geometry" />
        </mxCell>
        <mxCell id="DvewLmhPV5eEYxwKGvpW-35" value="Course_Name" style="ellipse;whiteSpace=wrap;html=1;" vertex="1" parent="1">
          <mxGeometry x="-60" y="730" width="120" height="40" as="geometry" />
        </mxCell>
        <mxCell id="DvewLmhPV5eEYxwKGvpW-36" value="" style="endArrow=none;html=1;rounded=0;exitX=0.167;exitY=0;exitDx=0;exitDy=0;entryX=0.5;entryY=1;entryDx=0;entryDy=0;exitPerimeter=0;" edge="1" parent="1" source="DvewLmhPV5eEYxwKGvpW-14">
          <mxGeometry width="50" height="50" relative="1" as="geometry">
            <mxPoint x="30.5" y="650" as="sourcePoint" />
            <mxPoint x="30" y="600" as="targetPoint" />
          </mxGeometry>
        </mxCell>
        <mxCell id="DvewLmhPV5eEYxwKGvpW-37" value="" style="endArrow=none;html=1;rounded=0;exitX=1;exitY=0;exitDx=0;exitDy=0;entryX=0.5;entryY=1;entryDx=0;entryDy=0;" edge="1" parent="1" source="DvewLmhPV5eEYxwKGvpW-35">
          <mxGeometry width="50" height="50" relative="1" as="geometry">
            <mxPoint x="100.5" y="750" as="sourcePoint" />
            <mxPoint x="100" y="700" as="targetPoint" />
          </mxGeometry>
        </mxCell>
        <mxCell id="DvewLmhPV5eEYxwKGvpW-38" value="Credit" style="ellipse;whiteSpace=wrap;html=1;" vertex="1" parent="1">
          <mxGeometry x="-50" y="650" width="90" height="30" as="geometry" />
        </mxCell>
        <mxCell id="DvewLmhPV5eEYxwKGvpW-39" value="" style="endArrow=none;html=1;rounded=0;entryX=0.5;entryY=1;entryDx=0;entryDy=0;" edge="1" parent="1" source="DvewLmhPV5eEYxwKGvpW-38">
          <mxGeometry width="50" height="50" relative="1" as="geometry">
            <mxPoint x="50" y="670" as="sourcePoint" />
            <mxPoint x="89" y="670" as="targetPoint" />
          </mxGeometry>
        </mxCell>
        <mxCell id="DvewLmhPV5eEYxwKGvpW-40" value="Designation" style="ellipse;whiteSpace=wrap;html=1;" vertex="1" parent="1">
          <mxGeometry x="630" y="630" width="120" height="40" as="geometry" />
        </mxCell>
        <mxCell id="DvewLmhPV5eEYxwKGvpW-41" value="Teacher_Name" style="ellipse;whiteSpace=wrap;html=1;" vertex="1" parent="1">
          <mxGeometry x="630" y="690" width="120" height="40" as="geometry" />
        </mxCell>
        <mxCell id="DvewLmhPV5eEYxwKGvpW-42" value="&lt;u&gt;Teacher_id&lt;/u&gt;" style="ellipse;whiteSpace=wrap;html=1;" vertex="1" parent="1">
          <mxGeometry x="550" y="740" width="120" height="40" as="geometry" />
        </mxCell>
        <mxCell id="DvewLmhPV5eEYxwKGvpW-43" value="" style="endArrow=none;html=1;rounded=0;entryX=0.5;entryY=1;entryDx=0;entryDy=0;exitX=0;exitY=0.5;exitDx=0;exitDy=0;" edge="1" parent="1" source="DvewLmhPV5eEYxwKGvpW-40">
          <mxGeometry width="50" height="50" relative="1" as="geometry">
            <mxPoint x="585.5" y="720" as="sourcePoint" />
            <mxPoint x="585" y="660" as="targetPoint" />
          </mxGeometry>
        </mxCell>
        <mxCell id="DvewLmhPV5eEYxwKGvpW-44" value="" style="endArrow=none;html=1;rounded=0;entryX=0.5;entryY=1;entryDx=0;entryDy=0;exitX=0;exitY=0.5;exitDx=0;exitDy=0;" edge="1" parent="1" source="DvewLmhPV5eEYxwKGvpW-41">
          <mxGeometry width="50" height="50" relative="1" as="geometry">
            <mxPoint x="585.5" y="740" as="sourcePoint" />
            <mxPoint x="585" y="680" as="targetPoint" />
          </mxGeometry>
        </mxCell>
        <mxCell id="DvewLmhPV5eEYxwKGvpW-45" value="" style="endArrow=none;html=1;rounded=0;entryX=0.5;entryY=1;entryDx=0;entryDy=0;exitX=0.325;exitY=0.075;exitDx=0;exitDy=0;exitPerimeter=0;" edge="1" parent="1" source="DvewLmhPV5eEYxwKGvpW-42">
          <mxGeometry width="50" height="50" relative="1" as="geometry">
            <mxPoint x="560.5" y="760" as="sourcePoint" />
            <mxPoint x="560" y="700" as="targetPoint" />
          </mxGeometry>
        </mxCell>
        <mxCell id="DvewLmhPV5eEYxwKGvpW-47" value="Admin" style="rounded=1;whiteSpace=wrap;html=1;" vertex="1" parent="1">
          <mxGeometry x="10" y="140" width="120" height="60" as="geometry" />
        </mxCell>
        <mxCell id="DvewLmhPV5eEYxwKGvpW-48" value="manages" style="rhombus;whiteSpace=wrap;html=1;" vertex="1" parent="1">
          <mxGeometry x="205" y="130" width="80" height="80" as="geometry" />
        </mxCell>
        <mxCell id="DvewLmhPV5eEYxwKGvpW-49" value="" style="endArrow=none;html=1;rounded=0;exitX=1;exitY=0.5;exitDx=0;exitDy=0;entryX=0.5;entryY=1;entryDx=0;entryDy=0;" edge="1" parent="1" source="DvewLmhPV5eEYxwKGvpW-47">
          <mxGeometry width="50" height="50" relative="1" as="geometry">
            <mxPoint x="205.5" y="240" as="sourcePoint" />
            <mxPoint x="205" y="170" as="targetPoint" />
          </mxGeometry>
        </mxCell>
        <mxCell id="DvewLmhPV5eEYxwKGvpW-50" value="" style="endArrow=none;html=1;rounded=0;exitX=0;exitY=0.5;exitDx=0;exitDy=0;entryX=0.5;entryY=1;entryDx=0;entryDy=0;" edge="1" parent="1" source="DvewLmhPV5eEYxwKGvpW-1">
          <mxGeometry width="50" height="50" relative="1" as="geometry">
            <mxPoint x="285.5" y="240" as="sourcePoint" />
            <mxPoint x="285" y="170" as="targetPoint" />
          </mxGeometry>
        </mxCell>
        <mxCell id="DvewLmhPV5eEYxwKGvpW-51" value="1" style="text;html=1;align=center;verticalAlign=middle;resizable=0;points=[];autosize=1;strokeColor=none;fillColor=none;" vertex="1" parent="1">
          <mxGeometry x="130" y="140" width="30" height="30" as="geometry" />
        </mxCell>
        <mxCell id="DvewLmhPV5eEYxwKGvpW-52" value="M" style="text;html=1;align=center;verticalAlign=middle;resizable=0;points=[];autosize=1;strokeColor=none;fillColor=none;" vertex="1" parent="1">
          <mxGeometry x="325" y="138" width="30" height="30" as="geometry" />
        </mxCell>
        <mxCell id="DvewLmhPV5eEYxwKGvpW-53" value="&lt;u&gt;Admin_id&lt;/u&gt;" style="ellipse;whiteSpace=wrap;html=1;" vertex="1" parent="1">
          <mxGeometry x="-140" y="70" width="120" height="40" as="geometry" />
        </mxCell>
        <mxCell id="DvewLmhPV5eEYxwKGvpW-54" value="Admin_Name" style="ellipse;whiteSpace=wrap;html=1;" vertex="1" parent="1">
          <mxGeometry x="-140" y="220" width="120" height="40" as="geometry" />
        </mxCell>
        <mxCell id="DvewLmhPV5eEYxwKGvpW-61" value="" style="endArrow=none;html=1;rounded=0;exitX=0.667;exitY=1;exitDx=0;exitDy=0;entryX=0.5;entryY=1;entryDx=0;entryDy=0;exitPerimeter=0;" edge="1" parent="1" source="DvewLmhPV5eEYxwKGvpW-53">
          <mxGeometry width="50" height="50" relative="1" as="geometry">
            <mxPoint x="-65" y="154.29" as="sourcePoint" />
            <mxPoint x="10" y="154.29" as="targetPoint" />
          </mxGeometry>
        </mxCell>
        <mxCell id="DvewLmhPV5eEYxwKGvpW-62" value="" style="endArrow=none;html=1;rounded=0;exitX=0.5;exitY=0;exitDx=0;exitDy=0;entryX=0.5;entryY=1;entryDx=0;entryDy=0;" edge="1" parent="1" source="DvewLmhPV5eEYxwKGvpW-54">
          <mxGeometry width="50" height="50" relative="1" as="geometry">
            <mxPoint x="-65" y="190" as="sourcePoint" />
            <mxPoint x="10" y="190" as="targetPoint" />
          </mxGeometry>
        </mxCell>
        <mxCell id="DvewLmhPV5eEYxwKGvpW-73" value="1" style="text;html=1;align=center;verticalAlign=middle;resizable=0;points=[];autosize=1;strokeColor=none;fillColor=none;" vertex="1" parent="1">
          <mxGeometry x="425" y="198" width="30" height="30" as="geometry" />
        </mxCell>
        <mxCell id="DvewLmhPV5eEYxwKGvpW-74" value="M" style="text;html=1;align=center;verticalAlign=middle;resizable=0;points=[];autosize=1;strokeColor=none;fillColor=none;" vertex="1" parent="1">
          <mxGeometry x="420" y="350" width="30" height="30" as="geometry" />
        </mxCell>
        <mxCell id="DvewLmhPV5eEYxwKGvpW-75" value="1" style="text;html=1;align=center;verticalAlign=middle;resizable=0;points=[];autosize=1;strokeColor=none;fillColor=none;" vertex="1" parent="1">
          <mxGeometry x="315" y="418" width="30" height="30" as="geometry" />
        </mxCell>
        <mxCell id="DvewLmhPV5eEYxwKGvpW-76" value="M" style="text;html=1;align=center;verticalAlign=middle;resizable=0;points=[];autosize=1;strokeColor=none;fillColor=none;" vertex="1" parent="1">
          <mxGeometry x="150" y="610" width="30" height="30" as="geometry" />
        </mxCell>
        <mxCell id="DvewLmhPV5eEYxwKGvpW-77" value="1" style="text;html=1;align=center;verticalAlign=middle;resizable=0;points=[];autosize=1;strokeColor=none;fillColor=none;" vertex="1" parent="1">
          <mxGeometry x="385" y="438" width="30" height="30" as="geometry" />
        </mxCell>
        <mxCell id="DvewLmhPV5eEYxwKGvpW-78" value="M" style="text;html=1;align=center;verticalAlign=middle;resizable=0;points=[];autosize=1;strokeColor=none;fillColor=none;" vertex="1" parent="1">
          <mxGeometry x="475" y="610" width="30" height="30" as="geometry" />
        </mxCell>
        <mxCell id="DvewLmhPV5eEYxwKGvpW-80" value="1" style="text;html=1;align=center;verticalAlign=middle;resizable=0;points=[];autosize=1;strokeColor=none;fillColor=none;" vertex="1" parent="1">
          <mxGeometry x="500" y="418" width="30" height="30" as="geometry" />
        </mxCell>
        <mxCell id="DvewLmhPV5eEYxwKGvpW-81" value="M" style="text;html=1;align=center;verticalAlign=middle;resizable=0;points=[];autosize=1;strokeColor=none;fillColor=none;" vertex="1" parent="1">
          <mxGeometry x="550" y="610" width="30" height="30" as="geometry" />
        </mxCell>
        <mxCell id="DvewLmhPV5eEYxwKGvpW-82" value="M" style="text;html=1;align=center;verticalAlign=middle;resizable=0;points=[];autosize=1;strokeColor=none;fillColor=none;" vertex="1" parent="1">
          <mxGeometry x="215" y="640" width="30" height="30" as="geometry" />
        </mxCell>
        <mxCell id="DvewLmhPV5eEYxwKGvpW-84" value="" style="endArrow=none;html=1;rounded=0;exitX=0;exitY=0.5;exitDx=0;exitDy=0;entryX=0.5;entryY=1;entryDx=0;entryDy=0;" edge="1" parent="1" source="DvewLmhPV5eEYxwKGvpW-15" target="DvewLmhPV5eEYxwKGvpW-83">
          <mxGeometry width="50" height="50" relative="1" as="geometry">
            <mxPoint x="465" y="670" as="sourcePoint" />
            <mxPoint x="364" y="670" as="targetPoint" />
          </mxGeometry>
        </mxCell>
        <mxCell id="DvewLmhPV5eEYxwKGvpW-83" value="1" style="text;html=1;align=center;verticalAlign=middle;resizable=0;points=[];autosize=1;strokeColor=none;fillColor=none;" vertex="1" parent="1">
          <mxGeometry x="425" y="640" width="30" height="30" as="geometry" />
        </mxCell>
        <mxCell id="DvewLmhPV5eEYxwKGvpW-85" value="M" style="text;html=1;align=center;verticalAlign=middle;resizable=0;points=[];autosize=1;strokeColor=none;fillColor=none;" vertex="1" parent="1">
          <mxGeometry x="150" y="700" width="30" height="30" as="geometry" />
        </mxCell>
        <mxCell id="DvewLmhPV5eEYxwKGvpW-86" value="`N" style="text;html=1;align=center;verticalAlign=middle;resizable=0;points=[];autosize=1;strokeColor=none;fillColor=none;" vertex="1" parent="1">
          <mxGeometry x="145" y="860" width="40" height="30" as="geometry" />
        </mxCell>
      </root>
    </mxGraphModel>
  </diagram>
</mxfile>
